<svg viewBox="0 0 1024 1024" fill="currentColor" width="32" height="32" xmlns="http://www.w3.org/2000/svg" xmlns:xlink="http://www.w3.org/1999/xlink">
    <path d="M810.667 256h-67.669l-42.667-42.667c-24.704-24.704-68.053-42.667-102.997-42.667h-170.667c-34.944 0-78.293 17.963-102.997 42.667l-42.667 42.667h-67.669c-70.571 0-128 57.429-128 128v341.333c0 70.571 57.429 128 128 128h597.333c70.571 0 128-57.429 128-128v-341.333c0-70.571-57.429-128-128-128zM512 682.667c-82.475 0-149.333-66.901-149.333-149.333 0-82.517 66.859-149.333 149.333-149.333s149.333 66.816 149.333 149.333c0 82.432-66.859 149.333-149.333 149.333zM768 482.091c-30.677 0-55.467-24.747-55.467-55.424s24.789-55.509 55.467-55.509 55.467 24.832 55.467 55.509-24.789 55.424-55.467 55.424z" />
</svg>