<svg viewBox="0 0 1024.585143 1024" fill="currentColor" width="32.018286" height="32" xmlns="http://www.w3.org/2000/svg" xmlns:xlink="http://www.w3.org/1999/xlink">
    <path d="M507.429 676.571l66.286-66.286-86.857-86.857-66.286 66.286v32h54.857v54.857h32zM758.857 265.143c-5.143-5.143-13.714-4.571-18.857 0.571l-200 200c-5.143 5.143-5.714 13.714-0.571 18.857s13.714 4.571 18.857-0.571l200-200c5.143-5.143 5.714-13.714 0.571-18.857zM804.571 604.571v108.571c0 90.857-73.714 164.571-164.571 164.571h-475.429c-90.857 0-164.571-73.714-164.571-164.571v-475.429c0-90.857 73.714-164.571 164.571-164.571h475.429c22.857 0 45.714 4.571 66.857 14.286 5.143 2.286 9.143 7.429 10.286 13.143 1.143 6.286-0.571 12-5.143 16.571l-28 28c-5.143 5.143-12 6.857-18.286 4.571-8.571-2.286-17.143-3.429-25.714-3.429h-475.429c-50.286 0-91.429 41.143-91.429 91.429v475.429c0 50.286 41.143 91.429 91.429 91.429h475.429c50.286 0 91.429-41.143 91.429-91.429v-72c0-4.571 1.714-9.143 5.143-12.571l36.571-36.571c5.714-5.714 13.143-6.857 20-4s11.429 9.143 11.429 16.571zM749.714 182.857l164.571 164.571-384 384h-164.571v-164.571zM1003.429 258.286l-52.571 52.571-164.571-164.571 52.571-52.571c21.143-21.143 56.571-21.143 77.714 0l86.857 86.857c21.143 21.143 21.143 56.571 0 77.714z" />
</svg>