<svg viewBox="0 0 1024 1024" fill="currentColor" width="32" height="32" xmlns="http://www.w3.org/2000/svg" xmlns:xlink="http://www.w3.org/1999/xlink">
    <path d="M432.128 222.464c27.776-6.485 55.296-9.429 79.36-9.131 75.008 0 141.184 23.851 198.741 59.435 47.744 29.525 89.131 66.859 123.477 104.448 27.477 30.080 50.133 59.947 67.627 85.376 13.952 20.267 24.32 37.291 31.275 49.28-23.296 40.661-49.493 77.696-75.861 108.459-15.317 17.877-13.269 44.843 4.608 60.16s44.843 13.269 60.16-4.608c34.901-40.704 68.736-90.112 97.408-143.787 6.315-11.904 6.955-26.368 0.555-39.211 0 0-16.896-33.664-47.787-78.635-19.243-27.989-44.288-61.099-74.965-94.635-38.144-41.771-85.504-84.779-141.611-119.467-68.053-42.027-149.589-72.149-242.603-72.149-31.317-0.384-65.707 3.371-99.84 11.349-22.955 5.376-37.205 28.331-31.829 51.285s28.331 37.205 51.285 31.829zM427.819 488.192l107.989 107.989c-7.765 2.603-15.872 4.011-24.021 4.309-21.888 0.768-43.947-6.784-61.184-22.869s-26.325-37.547-27.093-59.435c-0.341-10.155 1.067-20.309 4.309-30.037zM255.275 315.605l108.928 108.928c-18.517 29.483-27.136 63.317-25.941 96.683 1.536 43.605 19.755 86.741 54.229 118.827s78.763 47.232 122.368 45.696c29.525-1.024 58.837-9.728 84.651-25.941l99.072 99.072c-58.795 34.091-123.52 51.029-187.051 51.797-73.984 0-140.16-23.851-197.717-59.435-47.744-29.525-89.131-66.859-123.477-104.448-27.477-30.080-50.133-59.947-67.627-85.376-13.909-20.267-24.32-37.248-31.232-49.237 44.8-77.739 101.376-144.171 163.883-196.565zM12.501 72.832l182.229 182.229c-73.856 63.104-139.477 143.275-189.653 236.757-6.315 11.904-6.997 26.411-0.555 39.253 0 0 16.896 33.664 47.787 78.635 19.243 27.989 44.288 61.099 74.965 94.635 38.144 41.771 85.504 84.779 141.611 119.467 68.053 42.069 149.589 72.192 243.627 72.192 85.035-1.024 171.477-25.643 248.107-75.051l190.549 190.549c16.683 16.683 43.691 16.683 60.331 0s16.683-43.691 0-60.331l-378.709-378.709c-0.085-0.085-0.213-0.213-0.299-0.299l-179.584-179.627c-0.341-0.299-0.683-0.683-1.024-1.024l-379.051-379.008c-16.683-16.683-43.691-16.683-60.331 0s-16.683 43.691 0 60.331z" />
</svg>