<svg viewBox="0 0 877.714286 1024" fill="currentColor" width="27.428571" height="32" xmlns="http://www.w3.org/2000/svg" xmlns:xlink="http://www.w3.org/1999/xlink">
    <path d="M877.714 512c0 241.714-197.143 438.857-438.857 438.857-130.857 0-254.286-57.714-337.714-158.286-5.714-7.429-5.143-18.286 1.143-24.571l78.286-78.857c4-3.429 9.143-5.143 14.286-5.143 5.143 0.571 10.286 2.857 13.143 6.857 56 72.571 140 113.714 230.857 113.714 161.143 0 292.571-131.429 292.571-292.571s-131.429-292.571-292.571-292.571c-74.857 0-145.714 28.571-198.857 78.286l78.286 78.857c10.857 10.286 13.714 26.286 8 39.429-5.714 13.714-18.857 22.857-33.714 22.857h-256c-20 0-36.571-16.571-36.571-36.571v-256c0-14.857 9.143-28 22.857-33.714 13.143-5.714 29.143-2.857 39.429 8l74.286 73.714c80.571-76 189.714-121.143 302.286-121.143 241.714 0 438.857 197.143 438.857 438.857zM512 347.429v256c0 10.286-8 18.286-18.286 18.286h-182.857c-10.286 0-18.286-8-18.286-18.286v-36.571c0-10.286 8-18.286 18.286-18.286h128v-201.143c0-10.286 8-18.286 18.286-18.286h36.571c10.286 0 18.286 8 18.286 18.286z" />
</svg>