<svg viewBox="0 0 1024 1024" fill="currentColor" width="32" height="32" xmlns="http://www.w3.org/2000/svg" xmlns:xlink="http://www.w3.org/1999/xlink">
    <path d="M698 598h144q12-56 12-86t-12-86h-144q6 42 6 86t-6 86zM622 834q50-16 104-61t82-91h-126q-20 80-60 152zM612 598q6-42 6-86t-6-86h-200q-6 42-6 86t6 86h200zM512 852q56-82 82-170h-164q26 88 82 170zM342 342q24-86 60-152-50 16-105 61t-81 91h126zM216 682q26 46 81 91t105 61q-40-72-60-152h-126zM182 598h144q-6-42-6-86t6-86h-144q-12 56-12 86t12 86zM512 172q-56 82-82 170h164q-26-88-82-170zM808 342q-28-46-82-91t-104-61q36 66 60 152h126zM512 86q176 0 301 125t125 301-125 301-301 125-301-125-125-301 125-301 301-125z" />
</svg>