<svg viewBox="0 0 1024 1024" fill="currentColor" width="32" height="32" xmlns="http://www.w3.org/2000/svg" xmlns:xlink="http://www.w3.org/1999/xlink">
    <path d="M213.333 512h597.333c11.776 0 22.4 4.736 30.165 12.501s12.501 18.389 12.501 30.165v298.667c0 11.776-4.736 22.4-12.501 30.165s-18.389 12.501-30.165 12.501h-597.333c-11.776 0-22.4-4.736-30.165-12.501s-12.501-18.389-12.501-30.165v-298.667c0-11.776 4.736-22.4 12.501-30.165s18.389-12.501 30.165-12.501zM768 426.667v-128c0-70.699-28.715-134.741-74.965-181.035s-110.336-74.965-181.035-74.965-134.741 28.715-181.035 74.965-74.965 110.336-74.965 181.035v128h-42.667c-35.328 0-67.413 14.379-90.496 37.504s-37.504 55.168-37.504 90.496v298.667c0 35.328 14.379 67.413 37.504 90.496s55.168 37.504 90.496 37.504h597.333c35.328 0 67.413-14.379 90.496-37.504s37.504-55.168 37.504-90.496v-298.667c0-35.328-14.379-67.413-37.504-90.496s-55.168-37.504-90.496-37.504zM341.333 426.667v-128c0-47.147 19.072-89.728 50.005-120.661s73.515-50.005 120.661-50.005 89.728 19.072 120.661 50.005 50.005 73.515 50.005 120.661v128z" />
</svg>