<svg viewBox="0 0 1024 1024" fill="currentColor" width="32" height="32" xmlns="http://www.w3.org/2000/svg" xmlns:xlink="http://www.w3.org/1999/xlink">
    <path d="M512 765.269v0 0c-18.643-6.589-32-24.369-32-45.269 0-26.51 21.49-48 48-48s48 21.49 48 48c0 20.9-13.357 38.679-32 45.269v83.019c0 8.42-7.163 15.712-16 15.712-8.578 0-16-7.035-16-15.712v-83.019zM768 304v-32.024c0-132.535-107.721-239.976-240-239.976-132.548 0-240 107.415-240 239.976v240.025c-53.045 0.15-96 42.866-96 96.303v159.697c0 141.385 114.757 256 255.971 256h160.057c141.369 0 255.971-114.903 255.971-256v-159.697c0-53.093-42.907-96.151-96-96.303h-383.121c-0.581-5.248-0.879-10.581-0.879-15.983v-224.034c0-79.656 64.471-143.983 144-143.983 79.367 0 144 64.463 144 143.983v115.984c0 33.155 21.306 60.033 48 60.033 26.51 0 48-27.142 48-60.033v-83.967z" />
</svg>