<svg viewBox="0 0 1024 1024" fill="currentColor" width="32" height="32" xmlns="http://www.w3.org/2000/svg" xmlns:xlink="http://www.w3.org/1999/xlink">
    <path d="M170.080 296.765l357.92 311.235 357.981-311.287c6.206 5.878 10.019 14.235 10.019 23.507v383.562c0 17.821-14.371 32.219-32.098 32.219h-671.803c-18.053 0-32.098-14.425-32.098-32.219v-383.562c0-9.253 3.874-17.582 10.080-23.454zM192.115 256c-35.41 0-64.115 28.624-64.115 63.81v384.38c0 35.241 28.472 63.81 64.115 63.81h671.77c35.41 0 64.115-28.624 64.115-63.81v-384.38c0-35.241-28.472-63.81-64.115-63.81h-671.77zM528 566.4l-320-278.4h640l-320 278.4z" />
</svg>