<svg viewBox="0 0 1024 1024" fill="currentColor" width="32" height="32" xmlns="http://www.w3.org/2000/svg" xmlns:xlink="http://www.w3.org/1999/xlink">
    <path d="M512 85.333c23.595 0 44.843 9.515 60.331 25.003s25.003 36.736 25.003 60.331v341.333c0 23.595-9.515 44.843-25.003 60.331s-36.736 25.003-60.331 25.003-44.843-9.515-60.331-25.003-25.003-36.736-25.003-60.331v-341.333c0-23.595 9.515-44.843 25.003-60.331s36.736-25.003 60.331-25.003zM512 0c-47.104 0-89.856 19.157-120.661 50.005s-50.005 73.557-50.005 120.661v341.333c0 47.104 19.157 89.856 50.005 120.661s73.557 50.005 120.661 50.005 89.856-19.157 120.661-50.005 50.005-73.557 50.005-120.661v-341.333c0-47.104-19.157-89.856-50.005-120.661s-73.557-50.005-120.661-50.005zM341.333 1024h341.333c23.552 0 42.667-19.115 42.667-42.667s-19.115-42.667-42.667-42.667h-128v-87.979c77.184-9.643 146.432-45.056 198.699-97.323 61.696-61.739 99.968-147.115 99.968-241.365v-85.333c0-23.552-19.115-42.667-42.667-42.667s-42.667 19.115-42.667 42.667v85.333c0 70.699-28.587 134.656-74.965 181.035s-110.336 74.965-181.035 74.965-134.656-28.587-181.035-74.965-74.965-110.336-74.965-181.035v-85.333c0-23.552-19.115-42.667-42.667-42.667s-42.667 19.115-42.667 42.667v85.333c0 94.251 38.272 179.627 99.968 241.365 52.267 52.267 121.472 87.68 198.699 97.323v87.979h-128c-23.552 0-42.667 19.115-42.667 42.667s19.115 42.667 42.667 42.667z" />
</svg>