<svg viewBox="0 0 1024 1024" fill="currentColor" width="32" height="32" xmlns="http://www.w3.org/2000/svg" xmlns:xlink="http://www.w3.org/1999/xlink">
    <path d="M511.686 224.072c0.124 159.048 128.928 287.976 287.974 287.976 85.368 0 161.298-37.872 217.23-125.49 9.438 1.688 7.376 86.618 6.75 125.49-4.562 282.726-229.23 511.956-511.956 511.956-282.726 0-511.958-229.23-511.958-511.956s229.232-508.206 511.96-511.956c33.748-0.438 69.306 0.624 126.866 3.438-35.812 36.558-126.928 125.238-126.866 220.542zM383.696 320.064c0-69.182 22.436-132.802 59.746-185.11-179.36 32.31-315.722 188.42-315.722 377.092 0 212.042 171.922 383.968 383.966 383.968 188.67 0 344.784-136.364 377.092-315.722-52.308 37.308-115.926 59.742-185.11 59.742-176.734 0.002-319.972-143.236-319.972-319.97z" />
</svg>