<svg viewBox="0 0 877.714286 1024" fill="currentColor" width="27.428571" height="32" xmlns="http://www.w3.org/2000/svg" xmlns:xlink="http://www.w3.org/1999/xlink">
    <path d="M438.857 73.143c242.286 0 438.857 196.571 438.857 438.857s-196.571 438.857-438.857 438.857-438.857-196.571-438.857-438.857 196.571-438.857 438.857-438.857zM658.286 543.429c11.429-6.286 18.286-18.286 18.286-31.429s-6.857-25.143-18.286-31.429l-310.857-182.857c-10.857-6.857-25.143-6.857-36.571-0.571-11.429 6.857-18.286 18.857-18.286 32v365.714c0 13.143 6.857 25.143 18.286 32 5.714 2.857 12 4.571 18.286 4.571s12.571-1.714 18.286-5.143z" />
</svg>