<svg viewBox="0 0 1024 1024" fill="currentColor" width="32" height="32" xmlns="http://www.w3.org/2000/svg" xmlns:xlink="http://www.w3.org/1999/xlink">
    <path d="M864 0h-704c-70.688 0-128 57.312-128 128v768c0 70.688 57.312 128 128 128h704c70.688 0 128-57.312 128-128v-768c0-70.688-57.312-128-128-128zM928 896c0 35.264-28.736 64-64 64h-704c-35.296 0-64-28.736-64-64v-768c0-35.296 28.704-64 64-64h704c35.264 0 64 28.704 64 64v768zM832 128h-640c-17.696 0-32 14.304-32 32v576c0 17.696 14.304 32 32 32h640c17.696 0 32-14.304 32-32v-576c0-17.696-14.304-32-32-32zM832 160v443.808l-104-112.96c-6.112-6.912-14.816-10.848-24-10.848s-17.952 3.936-24 10.848l-83.328 94.4-252.672-286.4c-6.080-6.912-14.816-10.848-24-10.848s-17.92 3.936-24 10.848l-104 119.936v-258.784h640zM192 467.2l128-147.2 276.672 313.632 88.384 102.368h-493.056v-268.8zM727.68 736l-109.696-126.56 86.016-97.44 128 140.128v83.872h-104.32zM640 416c52.992 0 96-42.976 96-96s-43.008-96-96-96c-53.056 0-96 42.976-96 96s42.944 96 96 96zM640 256c35.264 0 64 28.704 64 64s-28.736 64-64 64c-35.328 0-64-28.704-64-64s28.672-64 64-64z" />
</svg>