<svg viewBox="0 0 1024 1024" fill="currentColor" width="32" height="32" xmlns="http://www.w3.org/2000/svg" xmlns:xlink="http://www.w3.org/1999/xlink">
    <path d="M406 278v128h-128v-128h128zM470 214h-256v256h256v-256zM406 618v128h-128v-128h128zM470 554h-256v256h256v-256zM746 278v128h-128v-128h128zM810 214h-256v256h256v-256zM554 554h64v64h-64v-64zM618 618h64v64h-64v-64zM682 554h64v64h-64v-64zM554 682h64v64h-64v-64zM618 746h64v64h-64v-64zM682 682h64v64h-64v-64zM746 618h64v64h-64v-64zM746 746h64v64h-64v-64zM938 298h-84v-128h-128v-84h212v212zM938 938v-212h-84v128h-128v84h212zM86 938h212v-84h-128v-128h-84v212zM86 86v212h84v-128h128v-84h-212z" />
</svg>