<svg viewBox="0 0 1024 1024" fill="currentColor" width="32" height="32" xmlns="http://www.w3.org/2000/svg" xmlns:xlink="http://www.w3.org/1999/xlink">
    <path d="M632.576 298.624c46.080 10.666 82.752 49.92 93.418 92.8 3.648 20.054 21.12 35.2 42.048 35.2 23.466 0 42.666-19.2 42.666-42.666 0-30.72-25.814-77.44-61.014-112.426-34.56-34.134-75.734-58.24-109.654-58.24-23.466 0-42.666 19.84-42.666 43.306 0.002 20.884 15.148 38.4 35.202 42.026zM46.122 857.984c-33.066 33.046-33.066 86.826 0 119.872 33.066 33.088 86.826 33.088 119.68 0l245.098-244.906c57.194 35.67 124.586 56.342 197.12 56.342 206.294 0 373.334-167.040 373.334-373.334 0-206.294-167.040-373.334-373.334-373.334s-373.334 167.040-373.334 373.334c0 72.32 20.714 139.946 56.342 197.12l-244.906 244.906zM341.376 415.958c0-147.2 119.488-266.666 266.666-266.666 147.2 0 266.666 119.466 266.666 266.666s-119.466 266.666-266.666 266.666c-147.178-0.022-266.666-119.488-266.666-266.666z" />
</svg>