<svg viewBox="0 0 1024 1024" fill="currentColor" width="32" height="32" xmlns="http://www.w3.org/2000/svg" xmlns:xlink="http://www.w3.org/1999/xlink">
    <path d="M525.334 384c46.102 10.666 82.752 49.92 93.418 92.8 3.67 20.054 21.12 35.2 42.048 35.2 23.466 0 42.666-19.2 42.666-42.666 0-30.698-25.792-77.44-60.992-112.426-34.602-34.134-75.776-58.242-109.696-58.242-23.466 0-42.666 19.862-42.666 43.306 0.022 20.908 15.168 38.402 35.222 42.028zM127.466 501.334c0 21.546 1.706 42.88 5.334 63.382l-74.454 24.32c-28.16 9.174-43.52 39.254-34.346 67.178 9.174 28.16 39.254 43.306 67.2 34.346l74.454-24.32c18.986 38.4 44.374 73.174 74.666 102.614l-46.080 63.552c-17.28 23.894-11.946 57.194 11.946 74.454 23.68 17.302 57.174 12.16 74.454-11.734l46.102-63.552c36.906 19.626 77.654 33.28 120.746 39.254v78.506c0 29.44 23.894 53.334 53.334 53.334s53.334-23.894 53.334-53.334v-78.506c43.094-5.974 83.84-19.626 120.746-39.254l46.080 63.552c17.302 23.894 50.794 29.014 74.454 11.734 23.872-17.28 29.206-50.56 11.968-74.454l-46.294-63.552c30.506-29.44 55.872-64.214 74.666-102.614l74.666 24.32c27.926 8.96 58.006-6.186 67.158-34.346 9.174-27.946-6.166-58.026-34.326-67.178l-74.454-24.32c3.626-20.502 5.334-41.834 5.334-63.382s-1.706-42.88-5.334-63.36l74.454-24.342c28.16-9.174 43.498-39.254 34.326-67.178-9.174-28.16-39.254-43.306-67.158-34.346l-74.666 24.32c-18.794-38.378-44.16-73.174-74.666-102.806l46.294-63.36c17.258-23.894 11.926-57.194-11.968-74.454-23.658-17.28-57.174-12.16-74.454 11.734l-46.080 63.36c-37.12-19.414-77.674-33.066-120.746-39.018l-0.002-78.55c0-29.44-23.894-53.334-53.334-53.334s-53.334 23.894-53.334 53.334v78.528c-43.094 5.952-83.84 19.606-120.746 39.018l-46.102-63.36c-17.28-23.894-50.774-28.992-74.454-11.734-23.894 17.28-29.226 50.56-11.946 74.454l46.080 63.36c-30.294 29.654-55.68 64.448-74.666 102.806l-74.454-24.32c-27.946-8.96-58.026 6.186-67.2 34.346-9.174 27.946 6.186 58.026 34.346 67.178l74.454 24.342c-3.624 20.502-5.332 41.834-5.332 63.382zM234.134 501.334c0-147.2 119.466-266.666 266.666-266.666s266.666 119.466 266.666 266.666-119.466 266.666-266.666 266.666c-147.2 0-266.666-119.466-266.666-266.666z" />
</svg>