<svg viewBox="0 0 1024 1024" fill="currentColor" width="32" height="32" xmlns="http://www.w3.org/2000/svg" xmlns:xlink="http://www.w3.org/1999/xlink">
    <path d="M938 222l-486 486-182-180 62-60 120 120 426-426zM512 854q-70 0-132-27t-109-74-74-109-27-132 27-132 74-109 109-74 132-27q50 0 96 14t86 40l62-62q-52-36-114-56t-130-20q-88 0-165 33t-136 92-92 136-33 165 33 165 92 136 136 92 165 33q56 0 107-13t97-39l-64-64q-32 16-67 24t-73 8zM810 640h-128v86h128v128h86v-128h128v-86h-128v-128h-86v128z" />
</svg>