<svg viewBox="0 0 1024 1024" fill="currentColor" width="32" height="32" xmlns="http://www.w3.org/2000/svg" xmlns:xlink="http://www.w3.org/1999/xlink">
    <path d="M889.366 737.92c-61.846-80.854-141.654-122.666-276.458-136.106-24.342-4.886-42.666-26.454-42.666-52.054 0-18.752 60.138-74.88 59.712-75.286 62.078-64.234 95.38-168.554 95.38-248.768 0-124.586-100.268-225.706-224-225.706s-224 101.12-224 225.706c0 80.64 32.426 185.6 95.146 249.814 0 0 59.946 55.488 59.946 74.218 0 27.114-20.48 49.706-46.934 52.906-132.054 13.866-210.986 55.466-272.214 135.254-17.704 23.062-27.304 69.356-27.944 94.102 0.214 6.4 0 106.666 0 106.666 0 47.146 38.186 85.334 85.334 85.334h661.334c47.146 0 85.334-38.186 85.334-85.334 0 0-0.214-100.266 0-106.666-0.622-24.746-10.242-71.040-27.97-94.080z" />
</svg>