<svg viewBox="0 0 1024 1024" fill="currentColor" width="32" height="32" xmlns="http://www.w3.org/2000/svg" xmlns:xlink="http://www.w3.org/1999/xlink">
    <path d="M768 896v-85.333c0-58.88-23.936-112.299-62.464-150.869s-91.989-62.464-150.869-62.464h-341.333c-58.88 0-112.299 23.936-150.869 62.464s-62.464 91.989-62.464 150.869v85.333c0 23.552 19.115 42.667 42.667 42.667s42.667-19.115 42.667-42.667v-85.333c0-35.371 14.293-67.285 37.504-90.496s55.125-37.504 90.496-37.504h341.333c35.371 0 67.285 14.293 90.496 37.504s37.504 55.125 37.504 90.496v85.333c0 23.552 19.115 42.667 42.667 42.667s42.667-19.115 42.667-42.667zM597.333 298.667c0-58.88-23.936-112.299-62.464-150.869s-91.989-62.464-150.869-62.464-112.299 23.936-150.869 62.464-62.464 91.989-62.464 150.869 23.936 112.299 62.464 150.869 91.989 62.464 150.869 62.464 112.299-23.936 150.869-62.464 62.464-91.989 62.464-150.869zM512 298.667c0 35.371-14.293 67.285-37.504 90.496s-55.125 37.504-90.496 37.504-67.285-14.293-90.496-37.504-37.504-55.125-37.504-90.496 14.293-67.285 37.504-90.496 55.125-37.504 90.496-37.504 67.285 14.293 90.496 37.504 37.504 55.125 37.504 90.496zM1024 896v-85.333c-0.043-53.12-19.499-101.76-51.84-139.136-27.819-32.128-65.195-55.936-107.904-67.243-22.784-6.016-46.123 7.552-52.139 30.336s7.552 46.123 30.336 52.139c25.899 6.869 48.469 21.248 65.195 40.619 19.371 22.443 30.976 51.456 31.019 83.285v85.333c0 23.552 19.115 42.667 42.667 42.667s42.667-19.115 42.667-42.667zM672.085 174.891c34.261 8.789 61.653 30.507 78.379 58.752s22.656 62.72 13.867 96.981c-7.509 29.355-24.533 53.589-47.147 70.485-13.397 10.027-28.8 17.451-45.355 21.803-22.784 5.973-36.437 29.312-30.421 52.096s29.312 36.437 52.096 30.421c27.179-7.125 52.565-19.413 74.752-36.011 37.717-28.16 66.219-68.821 78.72-117.675 14.592-57.045 4.693-114.731-23.125-161.621s-73.6-83.328-130.645-97.963c-22.827-5.845-46.080 7.936-51.925 30.763s7.936 46.080 30.763 51.925z" />
</svg>