<svg viewBox="0 0 1024 1024" fill="currentColor" width="32" height="32" xmlns="http://www.w3.org/2000/svg" xmlns:xlink="http://www.w3.org/1999/xlink">
    <path d="M889.366 737.92c-24.96-32.618-52.886-58.88-86.4-79.552-51.82 114.966-167.446 194.966-301.632 194.966s-249.814-80-301.674-194.986c-33.28 20.694-61.418 46.934-86.378 79.552-17.708 23.060-27.33 69.354-27.948 94.1 0.214 6.4 0 106.666 0 106.666 0 47.146 38.186 85.334 85.334 85.334h661.334c47.146 0 85.334-38.186 85.334-85.334 0 0-0.214-100.266 0-106.666-0.642-24.746-10.242-71.040-27.97-94.080zM385.472 602.666c-17.898 1.92-34.986 4.266-51.178 7.040-18.56 4.694-32.64 21.546-32.64 41.6 0 8.32 2.346 15.766 6.4 22.4 44.8 57.388 114.752 94.294 193.28 94.294 76.586 0 144.854-34.986 189.866-89.814 5.952-7.254 9.366-16.64 9.366-26.88 0-20.906-15.146-38.4-35.2-42.026-16.618-3.008-34.134-5.568-52.886-7.488-24.106-4.458-42.24-21.526-42.24-47.126 0-23.466 17.472-41.366 40.96-44.374 2.326-0.426 7.872-0.618 7.872-0.618 114.794-8.128 192.874-31.382 244.266-75.754 7.062-7.466 11.328-17.494 11.328-28.586 0-22.186-16.854-40.32-38.4-42.454-63.36-12.8-110.932-65.28-110.932-128.214v-8.96c0-124.586-100.268-225.706-224-225.706s-224 101.12-224 225.706v8.96c0 62.934-47.574 115.414-110.934 128.214-21.546 2.134-38.4 20.266-38.4 42.454 0 11.094 4.266 21.12 11.286 28.586 51.648 44.374 129.706 67.626 244.714 75.754 3.414 0 6.634 0.214 9.6 0.618 23.872 3.414 38.806 20.48 38.806 44.374 0.020 27.308-20.438 44.8-46.934 48z" />
</svg>