<svg viewBox="0 0 1024 1024" fill="currentColor" width="32" height="32" xmlns="http://www.w3.org/2000/svg" xmlns:xlink="http://www.w3.org/1999/xlink">
    <path d="M889.366 737.92c-44.8-58.454-98.986-96.426-176.618-117.952l-72.748 254.698c0 23.466-19.2 42.666-42.666 42.666s-42.666-19.2-42.666-42.666v-202.666c0-29.44-23.894-53.334-53.334-53.334s-53.334 23.894-53.334 53.334v202.666c0 23.466-19.2 42.666-42.666 42.666s-42.666-19.2-42.666-42.666l-72.746-254.698c-77.654 21.76-131.84 59.498-176.64 117.952-17.708 23.040-27.308 69.334-27.948 94.080v106.666c0 47.146 38.186 85.334 85.334 85.334h661.334c47.146 0 85.334-38.186 85.334-85.334v-106.666c-0.642-24.746-10.242-71.040-27.97-94.080zM501.334 533.334c143.786 0 224-183.040 224-307.628s-100.268-225.706-224-225.706-224 101.12-224 225.706 77.652 307.628 224 307.628z" />
</svg>